<?xml version="1.0" standalone="no"?>
<!DOCTYPE svg PUBLIC "-//W3C//DTD SVG 20010904//EN"
 "http://www.w3.org/TR/2001/REC-SVG-20010904/DTD/svg10.dtd">
<svg version="1.0" xmlns="http://www.w3.org/2000/svg"
 width="1024.000000pt" height="1024.000000pt" viewBox="0 0 1024.000000 1024.000000"
 preserveAspectRatio="xMidYMid meet">

<g transform="translate(0.000000,1024.000000) scale(0.100000,-0.100000)"
fill="#000000" stroke="none">
<path d="M4910 7324 c-135 -16 -228 -36 -365 -77 -689 -205 -1245 -828 -1364
-1527 -29 -174 -31 -259 -31 -1495 0 -1231 1 -1275 19 -1284 22 -12 946 -9
958 3 4 4 11 587 14 1294 l5 1287 26 95 c30 107 36 125 69 195 94 202 246 358
444 455 133 65 240 92 390 98 287 11 541 -93 746 -305 159 -163 245 -356 269
-599 5 -57 10 -610 10 -1299 0 -739 4 -1206 10 -1215 8 -13 73 -15 482 -16
288 0 478 3 486 9 16 12 18 2457 2 2582 -27 207 -34 246 -56 332 -52 198 -130
378 -237 548 -260 411 -671 718 -1142 854 -173 50 -272 63 -490 66 -115 2
-226 1 -245 -1z"/>
</g>
</svg>
