<svg width="33" height="32" viewBox="0 0 33 32" fill="none" xmlns="http://www.w3.org/2000/svg">
<path d="M16.0742 5.95996C16.4647 5.56949 17.0977 5.5696 17.4883 5.95996C17.8786 6.3505 17.8787 6.98358 17.4883 7.37402L9.86133 15H26.1152L26.2168 15.0049C26.721 15.0561 27.1152 15.4823 27.1152 16C27.1152 16.5177 26.721 16.9439 26.2168 16.9951L26.1152 17H9.86133L17.4883 24.627L17.5576 24.7021C17.8778 25.0949 17.8543 25.675 17.4883 26.041C17.1222 26.4067 16.543 26.4294 16.1504 26.1094L16.0742 26.041L6.75 16.7158C6.63068 16.5995 6.54078 16.4536 6.49121 16.29C6.48846 16.281 6.48588 16.2718 6.4834 16.2627C6.46062 16.1789 6.44728 16.091 6.44727 16C6.44727 15.9027 6.46236 15.8087 6.48828 15.7197C6.4894 15.7159 6.49004 15.7119 6.49121 15.708C6.49718 15.6884 6.5046 15.6694 6.51172 15.6504C6.51545 15.6404 6.5184 15.63 6.52246 15.6201C6.57489 15.4925 6.65272 15.3779 6.75 15.2832L16.0742 5.95996Z" fill="currentColor"/>
</svg>
