<svg width="14" height="14" viewBox="0 0 14 14" fill="none" xmlns="http://www.w3.org/2000/svg">
<path fill-rule="evenodd" clip-rule="evenodd" d="M10.0279 9.02905L13.7939 12.795C13.9263 12.9275 14.0006 13.1071 14.0005 13.2944C14.0005 13.4816 13.926 13.6612 13.7936 13.7936C13.6611 13.9259 13.4815 14.0003 13.2942 14.0002C13.107 14.0001 12.9274 13.9257 12.795 13.7932L9.02905 10.0272C7.90325 10.8992 6.48756 11.3095 5.06997 11.1748C3.65237 11.04 2.33936 10.3703 1.39805 9.30177C0.45673 8.23329 -0.0421852 6.84633 0.00279741 5.42306C0.04778 3.99978 0.633281 2.6471 1.64019 1.64019C2.6471 0.633281 3.99978 0.04778 5.42306 0.00279741C6.84633 -0.0421852 8.23329 0.45673 9.30177 1.39805C10.3703 2.33936 11.04 3.65237 11.1748 5.06997C11.3095 6.48756 10.8992 7.90325 10.0272 9.02905M5.60047 9.79974C6.71437 9.79974 7.78265 9.35725 8.5703 8.5696C9.35795 7.78195 9.80044 6.71368 9.80044 5.59978C9.80044 4.48588 9.35795 3.4176 8.5703 2.62995C7.78265 1.8423 6.71437 1.39981 5.60047 1.39981C4.48657 1.39981 3.4183 1.8423 2.63065 2.62995C1.843 3.4176 1.40051 4.48588 1.40051 5.59978C1.40051 6.71368 1.843 7.78195 2.63065 8.5696C3.4183 9.35725 4.48657 9.79974 5.60047 9.79974Z" fill="currentColor"/>
</svg>
